<svg xmlns="http://www.w3.org/2000/svg" width="300" height="300" viewBox="0 0 300 300" fill="#FFF">
<g filter="url(#filter0_d_233_329)">
<path d="M73.578 159.76C73.578 165.11 72.9704 170.568 73.7388 175.811C74.6322 181.859 76.6692 187.764 78.331 193.687C79.2601 196.979 80.2607 200.271 81.5473 203.421C82.9946 206.982 84.8708 210.363 86.4253 213.871C88.1228 217.718 91.1247 216.877 93.8765 215.785C97.4501 214.372 103.257 214.98 105.652 218.111C109.529 223.193 113.049 228.579 116.516 233.983C118.714 237.401 120.715 240.979 122.448 244.665C127.183 254.758 124.467 260.448 115.694 265.028C111.227 267.373 107.296 270.665 102.971 273.313C97.2357 276.838 91.3749 280.166 85.5319 283.513C83.9416 284.425 82.2977 285.642 80.5824 285.821C72.4165 286.68 69.3074 284.371 65.3764 276.999C62.0886 270.826 57.8895 265.136 54.2622 259.124C51.7428 254.936 49.4377 250.606 47.1148 246.312C44.5954 241.624 42.0223 236.953 39.7531 232.158C38.3593 229.223 37.4838 226.02 36.3402 222.961C34.8392 218.97 33.2668 215.016 31.8195 211.008C30.658 207.769 29.2822 204.548 28.6746 201.184C27.406 194.152 26.8699 186.976 25.5298 179.962C23.4749 169.19 22.4922 158.347 23.2605 147.414C23.7966 139.827 24.6364 132.222 26.048 124.76C27.263 118.301 28.6032 111.591 31.4621 105.757C36.2866 95.9158 39.7173 85.5196 46.0249 76.197C53.6547 64.9061 61.3381 53.7405 71.3801 44.6684C79.1708 37.6362 87.1758 30.7114 96.9141 25.9696C103.454 22.7666 110.137 20.4225 116.927 17.9711C131.972 12.5315 147.446 12.5672 162.938 13.4261C169.281 13.784 175.517 16.3249 181.771 17.9532C185.649 18.9553 189.687 19.6352 193.332 21.2099C198.46 23.4287 203.517 26.0054 208.199 29.0473C214.435 33.0912 220.76 37.2068 226.174 42.2349C232.875 48.444 238.861 55.4404 244.793 62.401C250.422 69.0216 255.425 76.1075 258.641 84.3565C260.982 90.3508 263.787 96.1842 266.503 102.035C269.237 107.94 270.202 114.382 272.203 120.394C274.258 126.55 272.9 132.83 274.776 138.52C278.439 149.632 276.456 160.87 276.527 172.017C276.563 178.978 275.402 186.082 273.776 192.881C271.739 201.381 269.148 209.809 265.878 217.915C262.25 226.879 257.569 235.397 253.388 244.129C250.422 250.338 247.616 256.618 244.525 262.756C243.006 265.78 241.273 268.75 239.218 271.434C235.877 275.818 232.643 280.489 228.479 283.96C226.335 285.749 221.653 286.608 219.188 285.517C212.255 282.439 205.84 278.162 199.264 274.279C193.797 271.059 188.508 267.569 182.933 264.563C177.965 261.879 172.605 251.662 177.215 245.453C180.949 240.425 182.915 234.108 186.506 228.955C190.348 223.444 193.332 216.734 200.604 214.622C201.927 214.246 203.767 214.765 205.072 215.427C209.896 217.879 213.738 216.161 215.632 211.079C217.758 205.371 220.421 199.878 222.851 194.295C222.976 194.027 223.137 193.758 223.19 193.472C224.227 187.889 225.459 182.342 226.246 176.741C227.228 169.781 228.515 162.784 228.443 155.806C228.354 148.219 227.496 140.507 225.727 133.134C223.887 125.422 221.225 117.728 217.722 110.606C214.542 104.129 210.021 98.224 205.626 92.4265C201.569 87.0942 197.406 81.6188 192.349 77.3601C186.363 72.3141 179.895 67.8943 171.801 65.8008C164.099 63.7967 156.595 60.4864 148.572 61.4347C141.8 62.24 135.242 64.7451 128.505 66.0871C118.821 68.0017 111.781 74.4434 104.508 80.1873C97.9862 85.3585 93.0009 92.176 89.1949 99.745C87.6225 102.894 85.5319 105.775 83.888 108.889C82.1548 112.127 80.5288 115.438 79.1172 118.838C77.9736 121.611 76.83 124.474 76.419 127.409C74.8645 138.127 73.6137 148.899 72.2378 159.635L73.5244 159.76H73.578ZM58.2647 154.535C57.2998 150.33 56.3707 145.964 55.2628 141.652C54.155 137.375 51.3675 135.389 47.0434 136.141C43.1838 136.803 41.3791 139.361 41.1825 143.388C41.0396 146.107 39.8603 148.756 39.6995 151.475C39.2885 157.792 37.2336 164.341 41.4327 170.21C43.4161 172.984 46.2036 174.791 49.5807 173.628C51.6356 172.93 54.2265 171.284 54.8697 169.459C56.4779 164.842 57.1212 159.885 58.2647 154.553V154.535ZM149.751 45.2231V45.2768C151.681 45.2768 153.611 45.2768 155.54 45.2768C157.47 45.2768 159.4 45.3305 161.33 45.241C164.492 45.0979 169.603 40.1055 169.692 37.171C169.764 34.5764 164.76 29.0831 161.884 29.0294C154.022 28.9041 146.159 28.8862 138.297 29.101C134.974 29.1904 129.917 34.9343 130.257 37.6183C130.632 40.5171 135.617 45.1158 138.619 45.2052C142.318 45.2947 146.034 45.2231 149.751 45.2231ZM255.8 201.953C255.836 196.711 251.655 192.434 247.616 192.488C246.794 192.488 245.794 192.667 245.168 193.15C240.737 196.55 238.718 201.488 236.806 206.498C235.591 209.683 234.34 212.886 233.429 216.161C232.696 218.791 231.195 222.352 232.267 224.07C233.875 226.611 237.717 229.599 240.165 229.241C242.917 228.848 245.579 225.251 247.527 222.513C249.528 219.686 250.761 216.286 252.03 213.012C253.566 209.039 254.799 204.942 255.8 201.971V201.953ZM89.052 68.1091C92.0539 66.4986 94.3053 65.4608 96.3602 64.1367C102.024 60.4864 107.778 56.9255 113.103 52.8279C114.765 51.5396 116.176 48.4977 115.944 46.4578C115.479 42.3065 109.476 38.7993 105.419 39.7834C104.026 40.1234 102.793 41.2686 101.542 42.1454C95.7348 46.2609 89.9812 50.4838 84.1203 54.5457C80.9755 56.7287 80.6896 60.0033 82.1727 62.5978C83.4592 64.8345 86.4253 66.105 89.0341 68.1091H89.052ZM56.4064 113.308C56.6208 112.968 56.8174 112.628 57.0318 112.288C62.0171 113.219 63.9648 109.962 65.8052 106.258C68.0387 101.785 70.308 97.2936 73.0062 93.0886C75.9009 88.5436 76.562 84.5354 73.6852 81.0998C71.9162 78.9884 69.8256 76.2864 66.5199 77.539C62.035 79.221 59.6049 83.1039 57.6393 87.2552C55.5309 91.6929 53.2616 96.0589 51.4747 100.604C50.492 103.109 49.3127 106.348 50.1525 108.531C50.9566 110.624 54.2265 111.77 56.4243 113.326L56.4064 113.308ZM251.547 105.399C251.333 105.077 251.101 104.773 250.886 104.451C250.386 102.644 250.207 100.658 249.332 99.065C246.169 93.2854 242.792 87.6131 239.433 81.9408C237.556 78.7379 234.751 75.7139 231.088 77.539C228.122 79.0063 226.103 82.4598 223.833 85.1796C223.53 85.5375 224.119 86.8258 224.495 87.5773C225.924 90.4582 227.264 93.4286 228.962 96.1484C231.838 100.783 234.912 105.292 237.985 109.783C240.094 112.879 243.578 113.076 246.205 111.698C248.456 110.517 249.796 107.565 251.547 105.399ZM209.896 67.5901C214.435 67.6259 216.632 64.9777 217.901 61.8642C219.42 58.1602 217.454 55.1362 214.399 53.0605C208.681 49.1776 202.838 45.5094 197.084 41.6802C192.439 38.5846 188.972 38.9603 185.988 42.9864C182.504 47.6924 182.718 49.1955 188.347 53.3289C193.404 57.0687 198.657 60.5401 203.892 64.0651C205.822 65.3534 207.895 66.4092 209.896 67.5723V67.5901ZM53.5475 192.613C52.7791 193.221 51.9751 194.384 50.9923 194.563C46.7217 195.315 46.3644 198.393 46.8826 201.613C47.2221 203.761 48.4907 205.765 49.3484 207.822C51.2067 212.278 52.7434 216.912 55.0127 221.135C58.3362 227.344 60.9629 228.364 67.5027 227.559C70.0043 227.255 71.6303 226.038 71.2551 223.658C70.719 220.33 69.7899 217.02 68.5927 213.871C65.4478 205.604 63.4823 196.442 53.5475 192.631V192.613ZM244.543 153.623C244.632 153.623 244.722 153.623 244.811 153.623C244.811 156.307 245.079 159.009 244.757 161.639C244.132 166.596 246.383 170.049 250.189 172.572C251.458 173.413 254.067 174.004 254.942 173.306C257.98 170.872 261.732 168.725 261.161 163.661C260.339 156.414 261.965 149.006 258.82 141.831C256.944 137.554 255.175 135.371 250.279 136.051C246.223 136.606 244.489 139.344 244.561 143.37C244.614 146.787 244.561 150.205 244.561 153.623H244.543Z" fill="black"/>
</g>
<defs>
<filter id="filter0_d_233_329" x="15" y="5" width="270" height="289" filterUnits="userSpaceOnUse" color-interpolation-filters="sRGB">
<feFlood flood-opacity="0" result="BackgroundImageFix"/>
<feColorMatrix in="SourceAlpha" type="matrix" values="0 0 0 0 0 0 0 0 0 0 0 0 0 0 0 0 0 0 127 0" result="hardAlpha"/>
<feOffset/>
<feGaussianBlur stdDeviation="4"/>
<feComposite in2="hardAlpha" operator="out"/>
<feColorMatrix type="matrix" values="0 0 0 0 1 0 0 0 0 1 0 0 0 0 1 0 0 0 0.79 0"/>
<feBlend mode="normal" in2="BackgroundImageFix" result="effect1_dropShadow_233_329"/>
<feBlend mode="normal" in="SourceGraphic" in2="effect1_dropShadow_233_329" result="shape"/>
</filter>
</defs>
</svg>